# xmcd CD database file
#
# Track frame offsets:
#	150
#	34668
#	68056
#	108261
#	151539
#	183219
#
# Disc length: 2716 seconds
#
# Revision: 0
# Processed by: cddbd v1.5.2PL0 Copyright (c) Steve Scherf et al.
# Submitted via: CDex 1.70beta3
#
DISCID=3a0a9a06
DTITLE=Donald Byrd - Chant
DYEAR=1961
DGENRE=Jazz
TTITLE0=I'm An Old Cowhand
TTITLE1=You're Next
TTITLE2=Chant
TTITLE3=That's All
TTITLE4=Great God
TTITLE5=Sophisticated Lady
EXTD=YEAR: 1961
EXTT0=
EXTT1=
EXTT2=
EXTT3=
EXTT4=
EXTT5=
PLAYORDER=
